<svg xmlns="http://www.w3.org/2000/svg" width="14.918" height="14.917" viewBox="0 46.443 14.918 14.917"><g data-name="Group 50"><path d="M11.408 49.107a.874.874 0 1 0 0 1.748.874.874 0 0 0 0-1.748" fill="#0e202c" fill-rule="evenodd" data-name="Path 38"/><path d="M7.52 50.228a3.678 3.678 0 0 0-3.674 3.674 3.678 3.678 0 0 0 3.674 3.673 3.678 3.678 0 0 0 3.674-3.673 3.678 3.678 0 0 0-3.674-3.674m0 6.027a2.356 2.356 0 0 1-2.353-2.353 2.356 2.356 0 0 1 2.353-2.354 2.356 2.356 0 0 1 2.353 2.354 2.356 2.356 0 0 1-2.353 2.353" fill="#0e202c" fill-rule="evenodd" data-name="Path 39"/><path d="M10.437 61.36H4.48A4.486 4.486 0 0 1 0 56.88v-5.956c0-2.47 2.01-4.481 4.481-4.481h5.956a4.486 4.486 0 0 1 4.48 4.48v5.956c0 2.47-2.01 4.481-4.48 4.481M4.48 47.846a3.08 3.08 0 0 0-3.077 3.078v5.955a3.08 3.08 0 0 0 3.077 3.078h5.956a3.08 3.08 0 0 0 3.077-3.078v-5.955a3.08 3.08 0 0 0-3.077-3.078H4.48Z" fill="#0e202c" fill-rule="evenodd" data-name="Path 40"/></g></svg>