<svg xmlns="http://www.w3.org/2000/svg" width="13.021" height="16.814" viewBox="0.745 129.777 13.021 16.814"><path d="M6.19 140.745c-.014.048-.028.089-.038.13-.617 2.42-.686 2.957-1.32 4.08-.303.535-.645 1.04-1.022 1.525-.042.055-.082.126-.167.108-.093-.02-.1-.103-.11-.178a12.982 12.982 0 0 1-.134-2.214c.032-.968.152-1.3 1.399-6.541a.366.366 0 0 0-.03-.22c-.298-.804-.357-1.621-.096-2.449.564-1.788 2.591-1.925 2.946-.45.218.913-.36 2.107-.803 3.872-.367 1.456 1.347 2.491 2.812 1.428 1.351-.98 1.876-3.33 1.776-4.994-.196-3.32-3.837-4.038-6.147-2.97-2.648 1.225-3.25 4.507-2.054 6.007.151.191.268.308.218.501-.077.301-.145.603-.228.902-.062.223-.248.303-.472.212a2.712 2.712 0 0 1-1.106-.829c-1.016-1.257-1.306-3.744.036-5.849 1.488-2.332 4.254-3.276 6.78-2.99 3.017.344 4.924 2.405 5.28 4.743.164 1.065.046 3.692-1.449 5.549-1.72 2.133-4.509 2.274-5.795.965-.1-.1-.18-.218-.276-.338" fill="#0e202c" fill-rule="evenodd" data-name="Path 43"/></svg>