<svg width="25" height="35" viewBox="0 0 25 35" fill="none" xmlns="http://www.w3.org/2000/svg">
<path d="M12.4993 0.772461C10.3568 0.776917 8.25619 1.36566 6.42486 2.47501C4.59353 3.58436 3.10116 5.17208 2.10919 7.06641C1.11722 8.96075 0.66341 11.0896 0.796856 13.2226C0.930302 15.3556 1.64592 17.4117 2.86631 19.1683L7.27015 26.8016L11.1243 33.4432C11.2238 33.6413 11.3668 33.8144 11.5427 33.9497C11.7186 34.0851 11.9228 34.1791 12.1401 34.2248V17.823C12.2593 17.8323 12.3785 17.8369 12.4993 17.8369C12.6201 17.8369 12.7409 17.8369 12.8601 17.823V34.2279C13.0715 34.1856 13.2715 34.0988 13.4466 33.9734C13.6218 33.8479 13.7681 33.6867 13.8759 33.5004L22.1339 19.2239C23.3538 17.4633 24.069 15.404 24.2026 13.2679C24.3361 11.1318 23.8829 8.99989 22.8918 7.1017C21.9006 5.2035 20.4091 3.611 18.5778 2.49572C16.7465 1.38043 14.6449 0.784618 12.4993 0.772461ZM15.0202 13.1676L14.7663 12.9128L12.8601 14.8142V11.725H12.1401V16.6043L10.2339 14.703L9.72756 15.2173L12.1432 17.6253V17.823C10.8405 17.73 9.62488 17.1364 8.75221 16.1672C7.87954 15.198 7.41794 13.9289 7.4646 12.627C7.51126 11.3252 8.06253 10.0921 9.00235 9.1876C9.94217 8.28306 11.1972 7.77757 12.5032 7.77757C13.8092 7.77757 15.0642 8.28306 16.004 9.1876C16.9438 10.0921 17.4951 11.3252 17.5418 12.627C17.5884 13.9289 17.1268 15.198 16.2542 16.1672C15.3815 17.1364 14.1659 17.73 12.8632 17.823V15.8305L15.2788 13.421L15.0202 13.1676ZM13.6514 19.9004L13.5368 19.1915C15.1463 18.9334 16.5993 18.08 17.6063 16.8013C18.6133 15.5226 19.1005 13.9124 18.9707 12.2915C18.8409 10.6706 18.1038 9.15794 16.9061 8.05485C15.7084 6.95176 14.138 6.3392 12.5078 6.3392C10.8777 6.3392 9.30732 6.95176 8.10961 8.05485C6.91191 9.15794 6.17475 10.6706 6.04498 12.2915C5.91521 13.9124 6.40235 15.5226 7.40937 16.8013C8.41639 18.08 9.86937 18.9334 11.4789 19.1915L11.3658 19.902C9.57794 19.6154 7.96389 18.6674 6.84523 17.247C5.72657 15.8266 5.18541 14.038 5.32953 12.2374C5.47366 10.4369 6.29251 8.75655 7.62295 7.5312C8.95339 6.30584 10.6978 5.62539 12.5086 5.62539C14.3195 5.62539 16.0638 6.30584 17.3943 7.5312C18.7247 8.75655 19.5436 10.4369 19.6877 12.2374C19.8318 14.038 19.2906 15.8266 18.172 17.247C17.0533 18.6674 15.4393 19.6154 13.6514 19.902V19.9004Z" fill="#0E202C"/>
</svg>
