<svg xmlns="http://www.w3.org/2000/svg" width="15.234" height="12.538" viewBox="0 88.252 15.234 12.538"><path d="M15.171 89.755c-.483.219-1.019.352-1.54.44.247-.042.611-.491.757-.672.223-.277.407-.592.511-.933.014-.026.024-.06-.003-.08-.033-.013-.055-.006-.082.007a7.87 7.87 0 0 1-1.826.699.122.122 0 0 1-.126-.034c-.053-.06-.103-.116-.16-.163-.27-.23-.558-.409-.885-.542a3.08 3.08 0 0 0-1.357-.218c-.448.029-.89.155-1.287.363a3.318 3.318 0 0 0-1.039.848 3.19 3.19 0 0 0-.62 1.243c-.107.437-.098.87-.033 1.311.01.074.003.083-.063.074-2.509-.374-4.588-1.271-6.276-3.195-.074-.084-.114-.084-.173.006-.74 1.108-.381 2.886.542 3.76.123.117.25.234.386.34-.05.01-.664-.056-1.212-.34-.073-.046-.11-.02-.116.064-.007.12.003.23.02.36.141 1.122.919 2.16 1.984 2.565.126.053.266.1.402.123-.243.054-.492.091-1.188.037-.087-.017-.12.027-.087.11.523 1.424 1.651 1.848 2.496 2.09.113.02.226.02.34.046-.007.01-.014.01-.02.02-.28.427-1.252.745-1.705.903a6.1 6.1 0 0 1-2.588.332c-.14-.02-.169-.02-.206 0-.039.023-.005.057.04.093.176.116.356.22.539.32a8.51 8.51 0 0 0 1.73.692c3.11.858 6.613.227 8.948-2.093 1.833-1.821 2.476-4.334 2.476-6.85 0-.098.116-.152.185-.204.477-.359.862-.787 1.218-1.266a.385.385 0 0 0 .08-.243v-.013c0-.04 0-.028-.062 0" fill="#0e202c" fill-rule="evenodd" data-name="Path 42"/></svg>