<svg xmlns="http://www.w3.org/2000/svg" width="250.895" height="757.6" viewBox="387 279.4 250.895 757.6"><g data-name="Atwater-11"><g data-name="Layer_2"><g data-name="Group 10"><g data-name="Group 8"><path d="M633.871 865.6c-.1-.4-.2-.7-.3-1.1-1.9-7.1-4.7-14.1-8.2-21.1-6.1 2.7-12.8 4.6-19.9 5.9-18.7 3.3-42.6 6.6-62.8-1.4 0 0 11.2 21.6 70.7 21.6 0 50.6-14.1 77.7-36.3 86.8-16.8-5.3-36.3-28.5-47.3-65.7-21.2-71.6 16.2-122 16.2-122 33.1 29.8 55.1 54 41.2 69.4 7.1-1.3 23.8-6.4 29.9-9.1-28-43.8-76.6-78.3-76.6-78.3s-4.6 4.9-10.3 12.8v-16.3s15.4-16.7 26.6-5.5c0 0-.5-14.7-26.6-26.3V397.9h32.8v-21.6c-3.3 4.9-9.4 7.6-16 5.9-4.8-1.3-8.8-5.2-10-10.1-2.5-9.7 4.7-18.4 14-18.4 5 0 9.4 2.5 12 6.4v-21.6h-32.8v-9.2h32.8v-15.4h-32.8v-9.2h32.8v-25.3h-41.3l-2.9 12.3H506.171l-2.8-12.2h-41.3v25.3h32.8v9.2h-32.8v15.4h32.8v9.2h-32.8v21.6c3.3-4.9 9.4-7.6 16-5.9 4.8 1.3 8.8 5.2 10 10.1 2.5 9.7-4.7 18.4-14 18.4-5 0-9.4-2.5-12-6.4V398h32.8v317.4c-26.1 11.6-26.6 26.3-26.6 26.3 11.2-11.2 26.6 5.5 26.6 5.5v16.4c-5.7-7.9-10.3-12.8-10.3-12.8s-77.9 56.3-93.3 113.9c-14.1 53.1 8 84.9 47.3 74.7 0 0-32.4-27.3-27.1-73.9 53 17.7 89.3-22.5 89.3-22.5.8 14.5-.6 30.6-5.7 47.8-21.2 71.6-58.8 67.7-58.8 67.7s23 15.7 34.9 15.7c15.1 0 33.9-26.7 41-45.2 5.5 15.3 18.8 34.3 30.5 41.2 28.9 17 76.1-29.8 76.1-29.8 18-20.6 23.9-39.9 15.1-74.8Zm-216.8-23.5c8.1-22.3 30.5-45.2 61.8-73.4 0 0 19.4 28 21.9 74.2-27.9 11.1-61.6 8.9-83.7-.8Z" fill="#0e202c" fill-rule="evenodd" data-name="Path 27"/></g><g data-name="Group 9"><path d="M512.371 943.5s-6.4 25.1-27.9 39.9c0 0 22.7 11 24.9 30.4-5.1 1.3-8.8 5.9-8.8 11.4 0 6.5 5.3 11.8 11.8 11.8 6.5 0 11.8-5.3 11.8-11.8 0-5.5-3.8-10-8.8-11.4 2.3-19.4 24.9-30.4 24.9-30.4-21.5-14.8-27.9-39.9-27.9-39.9Z" fill="#0e202c" fill-rule="evenodd" data-name="Path 28"/></g></g></g></g></svg>