<svg xmlns="http://www.w3.org/2000/svg" width="581" height="105.95" viewBox="670 235 581 105.95"><g data-name="Group 815"><path d="M680 327.104h557.672" stroke-linejoin="round" stroke-linecap="round" stroke-width="5" stroke="#0e202c" fill="transparent" data-name="Path 162"/><path d="M670 327.4a13.5 13.5 0 1 1 0 .1z" fill="#fff" fill-rule="evenodd" data-name="Ellipse 39"/><path d="M1224 327.4a13.5 13.5 0 1 1 0 .1z" fill="#fff" fill-rule="evenodd" data-name="Ellipse 40"/><path d="M743 314h15v11h-15v-11z" fill="#b9c5d1" fill-rule="evenodd" data-name="Rectangle 269"/><path d="M1180 314h15v11h-15v-11z" fill="#b9c5d1" fill-rule="evenodd" data-name="Rectangle 289"/><path d="M933 239h15v86h-15v-86z" fill="#b9c5d1" fill-rule="evenodd" data-name="Rectangle 288"/><path d="M990 239h15v86h-15v-86z" fill="#b9c5d1" fill-rule="evenodd" data-name="Rectangle 299"/><path d="M838 274h15v51h-15v-51z" fill="#b9c5d1" fill-rule="evenodd" data-name="Rectangle 278"/><path d="M1085 274h15v51h-15v-51z" fill="#b9c5d1" fill-rule="evenodd" data-name="Rectangle 294"/><path d="M762 305h15v20h-15v-20z" fill="#b9c5d1" fill-rule="evenodd" data-name="Rectangle 270"/><path d="M1161 305h15v20h-15v-20z" fill="#b9c5d1" fill-rule="evenodd" data-name="Rectangle 290"/><path d="M952 235h15v90h-15v-90z" fill="#b9c5d1" fill-rule="evenodd" data-name="Rectangle 287"/><path d="M971 235h15v90h-15v-90z" fill="#b9c5d1" fill-rule="evenodd" data-name="Rectangle 300"/><path d="M857 266h15v59h-15v-59z" fill="#b9c5d1" fill-rule="evenodd" data-name="Rectangle 277"/><path d="M1066 266h15v59h-15v-59z" fill="#b9c5d1" fill-rule="evenodd" data-name="Rectangle 295"/><path d="M781 296h15v29h-15v-29z" fill="#b9c5d1" fill-rule="evenodd" data-name="Rectangle 271"/><path d="M1142 296h15v29h-15v-29z" fill="#b9c5d1" fill-rule="evenodd" data-name="Rectangle 291"/><path d="M876 256h15v69h-15v-69z" fill="#b9c5d1" fill-rule="evenodd" data-name="Rectangle 276"/><path d="M1047 256h15v69h-15v-69z" fill="#b9c5d1" fill-rule="evenodd" data-name="Rectangle 296"/><path d="M800 291h15v34h-15v-34z" fill="#b9c5d1" fill-rule="evenodd" data-name="Rectangle 272"/><path d="M1123 291h15v34h-15v-34z" fill="#b9c5d1" fill-rule="evenodd" data-name="Rectangle 292"/><path d="M895 251h15v74h-15v-74z" fill="#b9c5d1" fill-rule="evenodd" data-name="Rectangle 275"/><path d="M1028 251h15v74h-15v-74z" fill="#b9c5d1" fill-rule="evenodd" data-name="Rectangle 297"/><path d="M819 285h15v40h-15v-40z" fill="#b9c5d1" fill-rule="evenodd" data-name="Rectangle 273"/><path d="M1104 285h15v40h-15v-40z" fill="#b9c5d1" fill-rule="evenodd" data-name="Rectangle 293"/><path d="M914 245h15v80h-15v-80z" fill="#b9c5d1" fill-rule="evenodd" data-name="Rectangle 274"/><path d="M1009 245h15v80h-15v-80z" fill="#b9c5d1" fill-rule="evenodd" data-name="Rectangle 298"/></g></svg>