<svg xmlns="http://www.w3.org/2000/svg" width="114.63" height="346.135"><g data-name="Group 10"><g data-name="Group 8"><path d="M112.791 267.825c-.045-.182-.09-.32-.137-.502-.868-3.244-2.147-6.442-3.746-9.64-2.787 1.233-5.848 2.101-9.092 2.695-8.544 1.508-19.463 3.016-28.692-.64 0 0 5.117 9.87 32.301 9.87 0 23.117-6.442 35.499-16.585 39.657-7.675-2.422-16.584-13.022-21.61-30.018-9.686-32.712 7.401-55.74 7.401-55.74 15.123 13.616 25.175 24.672 18.824 31.708 3.244-.594 10.874-2.924 13.66-4.157-12.792-20.012-34.996-35.774-34.996-35.774s-2.102 2.238-4.706 5.848v-7.447s7.036-7.63 12.153-2.513c0 0-.229-6.716-12.153-12.016V54.14h14.986v-9.869c-1.508 2.239-4.295 3.472-7.31 2.696-2.194-.594-4.021-2.376-4.57-4.615-1.142-4.432 2.148-8.407 6.397-8.407a6.554 6.554 0 0 1 5.483 2.924v-9.868H65.413v-4.204h14.986v-7.036H65.413V11.56h14.986V0h-18.87l-1.325 5.62h-5.757L53.168.046h-18.87v11.559h14.987v4.203H34.299v7.036h14.986v4.204H34.299v9.868c1.508-2.238 4.295-3.472 7.31-2.695 2.193.594 4.02 2.375 4.569 4.614 1.142 4.432-2.148 8.407-6.397 8.407a6.553 6.553 0 0 1-5.482-2.924v9.868h14.986v145.015c-11.925 5.3-12.154 12.016-12.154 12.016 5.118-5.117 12.154 2.513 12.154 2.513v7.493c-2.605-3.61-4.706-5.848-4.706-5.848s-35.592 25.723-42.627 52.04c-6.443 24.26 3.655 38.789 21.61 34.128 0 0-14.803-12.473-12.381-33.763 24.214 8.086 40.8-10.28 40.8-10.28.365 6.625-.275 13.98-2.605 21.839-9.686 32.713-26.865 30.93-26.865 30.93s10.509 7.174 15.945 7.174c6.9 0 15.489-12.199 18.733-20.651 2.513 6.99 8.59 15.67 13.935 18.823C84.328 323.382 105.892 302 105.892 302c8.224-9.412 10.92-18.23 6.9-34.175ZM13.74 257.09c3.7-10.189 13.935-20.652 28.236-33.536 0 0 8.863 12.793 10.005 33.9-12.747 5.072-28.144 4.067-38.241-.364Z" fill="#f8f8f9" fill-rule="evenodd" data-name="Path 27"/></g><g data-name="Group 9"><path d="M57.28 303.416s-2.924 11.468-12.747 18.23c0 0 10.371 5.026 11.377 13.89a5.348 5.348 0 0 0-4.021 5.208 5.401 5.401 0 0 0 5.391 5.39 5.401 5.401 0 0 0 5.392-5.39c0-2.513-1.737-4.569-4.021-5.209 1.05-8.863 11.376-13.89 11.376-13.89-9.823-6.76-12.747-18.229-12.747-18.229Z" fill="#f8f8f9" fill-rule="evenodd" data-name="Path 28"/></g></g></svg>