<svg xmlns="http://www.w3.org/2000/svg" width="14.705" height="15.005" viewBox="0 4.91 14.705 15.005"><g data-name="Google svg"><path d="M14.705 12.583c0-.532-.047-1.043-.136-1.534H7.503v2.902h4.037a3.451 3.451 0 0 1-1.497 2.264v1.883h2.425c1.419-1.306 2.237-3.23 2.237-5.515Z" fill="#4285f4" fill-rule="evenodd" data-name="Path 157"/><path d="M7.503 19.915c2.025 0 3.724-.672 4.965-1.817l-2.425-1.883c-.672.45-1.53.716-2.54.716-1.954 0-3.608-1.32-4.198-3.093H.798v1.944a7.5 7.5 0 0 0 6.705 4.133Z" fill="#34a853" fill-rule="evenodd" data-name="Path 158"/><path d="M3.305 13.839a4.51 4.51 0 0 1-.236-1.426c0-.494.086-.975.236-1.425V9.044H.798A7.5 7.5 0 0 0 0 12.414a7.5 7.5 0 0 0 .798 3.369l2.507-1.944Z" fill="#fbbc05" fill-rule="evenodd" data-name="Path 159"/><path d="M7.503 7.894c1.101 0 2.09.379 2.868 1.122l2.152-2.152c-1.3-1.21-2.998-1.954-5.02-1.954A7.5 7.5 0 0 0 .798 9.043l2.507 1.944c.59-1.773 2.244-3.093 4.198-3.093Z" fill="#ea4335" fill-rule="evenodd" data-name="Path 160"/></g></svg>