<svg xmlns="http://www.w3.org/2000/svg" width="50.043" height="151.109"><g data-name="Group 10"><g data-name="Group 8"><path d="M49.24 116.922c-.02-.08-.04-.14-.06-.22-.378-1.415-.937-2.811-1.635-4.208-1.217.539-2.553.918-3.97 1.177-3.729.658-8.496 1.317-12.525-.28 0 0 2.234 4.31 14.102 4.31 0 10.092-2.813 15.497-7.24 17.312-3.352-1.057-7.241-5.684-9.435-13.104-4.229-14.281 3.231-24.334 3.231-24.334 6.602 5.944 10.99 10.77 8.218 13.842 1.416-.259 4.747-1.276 5.964-1.815-5.585-8.736-15.279-15.617-15.279-15.617s-.917.977-2.054 2.553v-3.251s3.071-3.331 5.305-1.097c0 0-.1-2.933-5.305-5.246V23.636h6.542v-4.309c-.658.978-1.875 1.516-3.191 1.177-.958-.259-1.756-1.037-1.995-2.014-.499-1.935.937-3.67 2.792-3.67.998 0 1.875.498 2.394 1.276v-4.308h-6.542V9.953h6.542V6.881h-6.542V5.046h6.542V0H26.86l-.578 2.453H23.77L23.21.02h-8.237v5.046h6.542v1.835h-6.542v3.072h6.542v1.835h-6.542v4.308c.658-.977 1.875-1.516 3.19-1.177.958.26 1.756 1.038 1.995 2.015.5 1.935-.937 3.67-2.792 3.67a2.86 2.86 0 0 1-2.393-1.277v4.309h6.542v63.308c-5.206 2.313-5.306 5.245-5.306 5.245 2.234-2.233 5.306 1.097 5.306 1.097v3.272c-1.137-1.576-2.055-2.553-2.055-2.553S3.924 105.254.852 116.743c-2.812 10.591 1.596 16.934 9.434 14.9 0 0-6.462-5.446-5.405-14.74 10.571 3.53 17.812-4.488 17.812-4.488.16 2.892-.12 6.103-1.137 9.534-4.229 14.28-11.728 13.503-11.728 13.503s4.587 3.131 6.96 3.131c3.012 0 6.762-5.325 8.178-9.015 1.097 3.052 3.75 6.841 6.084 8.218 5.764 3.39 15.179-5.944 15.179-5.944 3.59-4.11 4.767-7.959 3.011-14.92Zm-43.242-4.687c1.616-4.448 6.083-9.015 12.326-14.64 0 0 3.87 5.585 4.369 14.8-5.565 2.214-12.287 1.775-16.695-.16Z" fill="#0e202c" fill-rule="evenodd" data-name="Path 27"/></g><g data-name="Group 9"><path d="M25.006 132.46s-1.276 5.006-5.565 7.958c0 0 4.528 2.194 4.967 6.064a2.335 2.335 0 0 0-1.755 2.274 2.358 2.358 0 0 0 2.353 2.353 2.358 2.358 0 0 0 2.354-2.353c0-1.097-.758-1.995-1.755-2.274.459-3.87 4.966-6.064 4.966-6.064-4.288-2.952-5.565-7.958-5.565-7.958Z" fill="#0e202c" fill-rule="evenodd" data-name="Path 28"/></g></g></svg>