<svg xmlns="http://www.w3.org/2000/svg" width="102.626" height="91.315"><g data-name="Group 1" clip-path="url(&quot;#a&quot;)"><path d="M100.974 46.996c-.043-.144-.072-.288-.115-.431-.777-2.894-1.929-5.787-3.368-8.622-2.49 1.093-5.24 1.9-8.133 2.418-7.643 1.353-17.416 2.706-25.693-.576 0 0 4.577 8.81 28.918 8.81 0 20.683-5.758 31.795-14.855 35.509-6.88-2.173-14.855-11.673-19.36-26.874-8.68-29.291 6.636-49.875 6.636-49.875 13.516 12.192 22.526 22.066 16.84 28.4 2.908-.519 9.731-2.634 12.221-3.728C82.622 14.092 62.73 0 62.73 0s-8.334 8.737-11.414 19.288C48.235 8.738 39.901 0 39.901 0S8.032 23.03 1.756 46.565C-4.03 68.27 5.01 81.283 21.102 77.123c0 0-13.257-11.17-11.069-30.199 21.677 7.226 36.503-9.183 36.532-9.226.331 5.945-.245 12.523-2.317 19.532-8.68 29.292-24.053 27.666-24.053 27.666s9.4 6.42 14.279 6.42c6.175 0 13.861-10.911 16.769-18.468 2.245 6.247 7.7 14.034 12.465 16.84 11.818 6.953 31.134-12.176 31.134-12.176 7.313-8.378 9.745-16.251 6.132-30.516m-88.652-9.63c3.31-9.125 12.48-18.481 25.29-30.01 0 0 7.917 11.443 8.953 30.356-11.429 4.506-25.204 3.628-34.243-.345" fill="#0e202c" fill-rule="evenodd" data-name="Path 1"/></g><defs><clipPath id="a"><path d="M0 0h102.626v91.315H0V0z" data-name="Rectangle 5"/></clipPath></defs></svg>