<svg xmlns="http://www.w3.org/2000/svg" width="189" height="27.473" viewBox="-649.76 230.271 189 27.473"><g data-name="Group 56"><g data-name="Group 54"><path d="M-537.155 240.855c0-6.302 3.855-10.584 9.408-10.584 5.748 0 7.675 3.954 7.675 7.906v.619l-3.135-.356a8.37 8.37 0 0 0 .424-2.582c0-2.775-1.927-4.44-4.802-4.44-3.952 0-7.218 2.774-7.218 9.437 0 6.008 3.103 9.21 7.512 9.21 2.124 0 3.953-.488 4.933-1.368l.36-2.748c.227-2.021-.98-2.379-3.072-2.644l-5.324-.654v-.424h10.388l-.033 4.476c0 .588.097.947.294 1.306-2.32 2.546-4.933 3.624-8.297 3.624-5.78 0-9.113-3.983-9.113-10.778Z" fill="#0e202c" fill-rule="evenodd" data-name="Path 37"/><path d="m-506.485 237.491-.882 2.518-.196-.066c.065-.914-.588-1.766-1.96-1.766-2.024 0-3.853 2.025-3.853 8.851v1.96c0 1.566.914 1.926 1.829 1.926v.492h-5.815v-.492c.883 0 1.863-.36 1.863-1.926v-9.927c0-1.57-.98-1.925-1.863-1.925v-.491h3.986v5.255h.097c.327-2.252 1.6-5.455 4.378-5.455 1.11 0 2.057.461 2.416 1.046Z" fill="#0e202c" fill-rule="evenodd" data-name="Path 38"/><path d="M-492.377 243.99c0 4.312-2.253 7.643-6.532 7.643-4.312 0-6.532-3.331-6.532-7.643 0-4.311 2.22-7.642 6.532-7.642 4.279 0 6.532 3.33 6.532 7.642Zm-2.319 0c0-3.626-1.208-6.565-4.213-6.565s-4.213 2.94-4.213 6.565c0 3.657 1.208 6.566 4.213 6.566s4.213-2.909 4.213-6.566Z" fill="#0e202c" fill-rule="evenodd" data-name="Path 39"/><path d="M-476.143 250.917v.487h-3.985v-3.983h-.098c-.327 2.06-1.829 4.245-4.67 4.245-2.81 0-4.116-1.535-4.116-4.769v-7.837c0-1.568-.947-1.93-1.829-1.93v-.488h3.984v9.605c0 2.874.687 4.277 2.646 4.277 2.255 0 4.083-2.122 4.083-8.035v-3.43c0-1.567-.947-1.928-1.861-1.928v-.49h3.984v12.345c0 1.572.948 1.931 1.862 1.931Z" fill="#0e202c" fill-rule="evenodd" data-name="Path 40"/><path d="M-460.76 244.023c0 5.977-2.483 7.61-5.454 7.61-2.974 0-4.312-2.124-4.737-4.082v10.193h-3.985v-.494c.882 0 1.862-.358 1.862-1.926l-.032-16.267c0-1.566-.948-1.926-1.83-1.926v-.488h3.985v3.59c.392-1.895 1.763-3.885 4.737-3.885 2.971 0 5.454 1.632 5.454 7.675Zm-2.32 0c0-4.508-1.207-6.598-3.657-6.598-2.025 0-4.214 1.796-4.214 6.598 0 4.769 2.189 6.533 4.214 6.533 2.514 0 3.657-2.091 3.657-6.533Z" fill="#0e202c" fill-rule="evenodd" data-name="Path 41"/></g><g data-name="Group 55"><path d="M-630.065 250.525v.551h-7.545v-.55c1.503 0 2.842-.33 2.352-1.964l-1.143-3.92h-7.61l-1.176 3.92c-.49 1.634.816 1.963 2.318 1.963v.551h-6.891v-.55c1.11 0 2.515-.33 3.005-1.964l4.67-15.774c.49-1.634-1.142-1.96-2.94-1.96v-.557h6.631l5.39 18.292c.49 1.633 1.862 1.962 2.94 1.962Zm-6.76-7.254-3.397-11.496-3.398 11.496h6.794Z" fill="#0e202c" fill-rule="evenodd" data-name="Path 42"/><path d="M-625.917 237.622v9.374c0 2.059.883 2.874 2.32 2.874 1.829 0 2.22-1.568 2.253-1.862h.392c-.033.391-.229 3.3-3.397 3.3-2.547 0-3.723-1.57-3.723-4.213v-9.473h-2.124v-.883c2.417-.489 3.495-1.993 3.757-4.997h.522v5.064l2.156-.49h2.809v1.306h-4.965Z" fill="#0e202c" fill-rule="evenodd" data-name="Path 43"/><path d="M-596.325 236.8c-.915 0-2.058.328-2.482 1.863l-3.43 12.413h-2.482l-3.201-9.7-3.364 9.7h-2.483l-4.116-12.447c-.49-1.535-1.698-1.828-2.612-1.828v-.488h4.017l4.344 13.294 3.593-10.195-.261-.783c-.49-1.535-1.731-1.828-2.613-1.828v-.488h3.985l4.344 13.16 2.972-10.81c.424-1.535-.686-1.862-1.96-1.862v-.488h5.749v.488Z" fill="#0e202c" fill-rule="evenodd" data-name="Path 44"/><path d="M-582.38 250.589v.488h-3.82v-4.54h-.132c-.522 2.156-1.73 4.768-4.898 4.768-2.352 0-4.05-1.404-4.05-5.094 0-.783.097-1.697.26-2.614l8.787-.849v-.75c0-2.548-.686-4.9-3.593-4.9-2.221 0-3.169 1.338-3.169 2.644 0 .621.197 1.145.49 1.34v.133l-2.253.23a3.9 3.9 0 0 1-.23-1.307c0-1.994 1.504-4.118 5.325-4.118 5.16 0 5.455 4.02 5.455 7.023v5.618c0 1.567.914 1.928 1.829 1.928Zm-3.919-7.22-6.63 1.077c-.164.653-.196 1.307-.196 1.929 0 2.253.751 3.56 2.646 3.56 2.841 0 3.951-3.331 4.18-6.567Z" fill="#0e202c" fill-rule="evenodd" data-name="Path 45"/><path d="M-577.056 237.622v9.374c0 2.059.882 2.874 2.32 2.874 1.829 0 2.22-1.568 2.253-1.862h.392c-.033.391-.228 3.3-3.397 3.3-2.547 0-3.724-1.57-3.724-4.213v-9.473h-2.123v-.883c2.417-.489 3.495-1.993 3.757-4.997h.522v5.064l2.156-.49h2.809v1.306h-4.965Z" fill="#0e202c" fill-rule="evenodd" data-name="Path 46"/><path d="M-557.949 246.7c-.23 1.078-1.372 4.605-5.651 4.605-4.278 0-6.532-2.841-6.532-7.708 0-4.931 2.547-7.577 6.5-7.577 3.919 0 5.487 2.449 5.487 5.684 0 .62-.066 1.208-.13 1.86l-9.603.066c.13 4.148 1.893 6.37 4.866 6.37 3.266 0 4.377-2.549 4.638-3.396l.425.095Zm-9.93-3.754 7.284-.458c.13-.458.196-.981.196-1.535 0-1.96-1.045-3.854-3.3-3.854-2.089 0-4.114 1.5-4.18 5.847Z" fill="#0e202c" fill-rule="evenodd" data-name="Path 47"/><path d="m-545.146 237.165-.882 2.516-.196-.066c.065-.917-.588-1.765-1.96-1.765-2.025 0-3.854 2.025-3.854 8.852v1.958c0 1.571.914 1.928 1.83 1.928v.492h-5.815v-.492c.882 0 1.862-.357 1.862-1.928v-9.928c0-1.567-.98-1.926-1.862-1.926v-.49h3.985v5.256h.097c.328-2.252 1.601-5.454 4.378-5.454 1.11 0 2.058.458 2.417 1.047Z" fill="#0e202c" fill-rule="evenodd" data-name="Path 48"/></g></g></svg>