<svg xmlns="http://www.w3.org/2000/svg" width="93" height="86.937" viewBox="20 1398.262 93 86.937"><g data-name="Group 382"><g data-name="Group 364" transform="translate(20 1398.262)" clip-path="url(&quot;#a&quot;)"><path d="M12.645 71.925c0-5.604 3.426-9.407 8.363-9.407 5.11 0 6.823 3.513 6.823 7.026v.552l-2.788-.32a7.424 7.424 0 0 0 .378-2.293c0-2.468-1.713-3.95-4.268-3.95-3.514 0-6.417 2.469-6.417 8.392 0 5.343 2.758 8.189 6.678 8.189 1.887 0 3.513-.436 4.384-1.22l.32-2.439c.203-1.8-.871-2.12-2.73-2.352l-4.733-.58v-.378h9.234l-.029 3.978c0 .523.087.842.261 1.161-2.061 2.265-4.384 3.223-7.375 3.223-5.14 0-8.101-3.542-8.101-9.582" fill="#f8f8f9" fill-rule="evenodd" data-name="Path 98"/><path d="m39.91 68.935-.784 2.235-.175-.058c.058-.813-.522-1.568-1.742-1.568-1.8 0-3.426 1.8-3.426 7.87v1.741c0 1.394.813 1.714 1.626 1.714v.435H30.24v-.435c.783 0 1.655-.32 1.655-1.714v-8.827c0-1.393-.872-1.713-1.655-1.713v-.435h3.542v4.674h.087c.29-2.003 1.423-4.849 3.89-4.849.988 0 1.83.407 2.15.93" fill="#f8f8f9" fill-rule="evenodd" data-name="Path 99"/><path d="M52.453 74.713c0 3.833-2.004 6.794-5.807 6.794-3.833 0-5.808-2.961-5.808-6.794 0-3.833 1.975-6.795 5.808-6.795 3.803 0 5.807 2.962 5.807 6.795m-2.062 0c0-3.223-1.074-5.837-3.745-5.837-2.672 0-3.746 2.614-3.746 5.837 0 3.252 1.074 5.836 3.746 5.836 2.671 0 3.745-2.584 3.745-5.836" fill="#f8f8f9" fill-rule="evenodd" data-name="Path 100"/><path d="M66.883 80.869v.435h-3.542v-3.542h-.087c-.29 1.829-1.626 3.774-4.152 3.774-2.498 0-3.659-1.364-3.659-4.239v-6.969c0-1.393-.842-1.713-1.626-1.713v-.435h3.542v8.536c0 2.556.61 3.804 2.352 3.804 2.004 0 3.63-1.887 3.63-7.143v-3.049c0-1.393-.842-1.713-1.655-1.713v-.435h3.542v10.975c0 1.394.842 1.714 1.655 1.714" fill="#f8f8f9" fill-rule="evenodd" data-name="Path 101"/><path d="M80.559 74.742c0 5.313-2.207 6.765-4.85 6.765-2.642 0-3.832-1.887-4.21-3.629v9.06h-3.542V86.5c.784 0 1.655-.319 1.655-1.713l-.029-14.46c0-1.393-.842-1.713-1.626-1.713v-.435H71.5v3.194c.348-1.684 1.567-3.456 4.21-3.456 2.642 0 4.849 1.452 4.849 6.824m-2.062 0c0-4.007-1.074-5.866-3.252-5.866-1.8 0-3.745 1.597-3.745 5.866 0 4.24 1.945 5.807 3.745 5.807 2.236 0 3.252-1.858 3.252-5.807" fill="#f8f8f9" fill-rule="evenodd" data-name="Path 102"/><path d="M17.509 56.41v.494h-6.707v-.494c1.335 0 2.526-.29 2.09-1.742l-1.016-3.485H5.11l-1.045 3.485c-.435 1.452.726 1.742 2.062 1.742v.494H0v-.494c.987 0 2.236-.29 2.671-1.742l4.152-14.025c.436-1.451-1.016-1.742-2.613-1.742v-.494h5.895l4.79 16.26c.436 1.453 1.656 1.743 2.614 1.743m-6.01-6.446-3.02-10.22-3.02 10.22h6.04Z" fill="#f8f8f9" fill-rule="evenodd" data-name="Path 103"/><path d="M21.196 44.94v8.334c0 1.83.784 2.555 2.061 2.555 1.627 0 1.975-1.394 2.004-1.654h.348c-.029.348-.203 2.932-3.02 2.932-2.264 0-3.31-1.394-3.31-3.746v-8.42h-1.887v-.784c2.149-.436 3.107-1.772 3.34-4.443h.464v4.5l1.916-.435h2.497v1.162h-4.413Z" fill="#f8f8f9" fill-rule="evenodd" data-name="Path 104"/><path d="M47.503 44.215c-.813 0-1.83.29-2.207 1.655l-3.049 11.034H40.04l-2.845-8.624-2.991 8.624h-2.207L28.339 45.84c-.436-1.365-1.51-1.626-2.323-1.626v-.436h3.571l3.862 11.818 3.194-9.06-.232-.696c-.436-1.365-1.54-1.626-2.323-1.626v-.436h3.542l3.862 11.702 2.642-9.611c.378-1.365-.61-1.655-1.742-1.655v-.436h5.11v.436Z" fill="#f8f8f9" fill-rule="evenodd" data-name="Path 105"/><path d="M59.9 56.468v.436h-3.397v-4.036h-.116c-.465 1.916-1.539 4.239-4.355 4.239-2.091 0-3.6-1.249-3.6-4.53 0-.697.086-1.51.231-2.323l7.811-.754v-.668c0-2.265-.61-4.356-3.194-4.356-1.974 0-2.816 1.19-2.816 2.352 0 .552.174 1.016.435 1.19v.117l-2.003.203a3.458 3.458 0 0 1-.204-1.161c0-1.772 1.336-3.66 4.733-3.66 4.588 0 4.85 3.572 4.85 6.244v4.994c0 1.394.812 1.713 1.625 1.713m-3.484-6.417-5.894.958c-.145.581-.175 1.162-.175 1.714 0 2.003.668 3.164 2.352 3.164 2.526 0 3.514-2.961 3.717-5.836" fill="#f8f8f9" fill-rule="evenodd" data-name="Path 106"/><path d="M64.633 44.94v8.334c0 1.83.784 2.555 2.061 2.555 1.626 0 1.975-1.394 2.004-1.654h.348c-.029.348-.203 2.932-3.02 2.932-2.264 0-3.31-1.394-3.31-3.746v-8.42H60.83v-.784c2.149-.436 3.107-1.772 3.339-4.443h.465v4.5l1.916-.435h2.497v1.162h-4.413Z" fill="#f8f8f9" fill-rule="evenodd" data-name="Path 107"/><path d="M81.618 53.013c-.203.958-1.219 4.094-5.023 4.094-3.804 0-5.807-2.526-5.807-6.853 0-4.384 2.265-6.736 5.778-6.736 3.485 0 4.878 2.178 4.878 5.052 0 .552-.058 1.075-.116 1.656l-8.537.057c.117 3.688 1.685 5.663 4.327 5.663 2.904 0 3.89-2.265 4.123-3.02l.377.087Zm-8.827-3.34 6.476-.406a5.02 5.02 0 0 0 .174-1.364c0-1.743-.93-3.427-2.933-3.427-1.858 0-3.658 1.336-3.717 5.198" fill="#f8f8f9" fill-rule="evenodd" data-name="Path 108"/><path d="m93 44.534-.784 2.236-.174-.058c.058-.813-.523-1.568-1.742-1.568-1.8 0-3.427 1.8-3.427 7.869v1.742c0 1.394.814 1.713 1.627 1.713v.436h-5.17v-.436c.785 0 1.656-.32 1.656-1.713v-8.827c0-1.394-.871-1.713-1.655-1.713v-.436h3.542v4.675h.088c.29-2.003 1.422-4.849 3.89-4.849.988 0 1.83.406 2.149.93" fill="#f8f8f9" fill-rule="evenodd" data-name="Path 109"/><path d="m65.002 17.29-.04-.16c-.284-1.064-.71-2.125-1.24-3.169-.915.403-1.925.699-2.992.888-2.813.497-6.407.993-9.451-.213 0 0 1.682 3.242 10.636 3.242-.002 7.61-2.117 11.694-5.464 13.062-2.53-.798-5.464-4.292-7.12-9.885-3.194-10.776 2.44-18.349 2.44-18.349 4.973 4.483 8.283 8.12 6.195 10.446 1.068-.19 3.58-.969 4.494-1.371C58.25 5.185 50.932 0 50.932 0s-3.067 3.215-4.201 7.097C45.597 3.215 42.53 0 42.53 0S30.809 8.47 28.5 17.13c-2.129 7.983 1.197 12.772 7.117 11.242 0 0-4.876-4.11-4.07-11.109 7.972 2.656 13.427-3.378 13.44-3.392.12 2.188-.091 4.606-.855 7.184-3.193 10.777-8.848 10.178-8.848 10.178s3.46 2.363 5.256 2.363c2.273 0 5.1-4.012 6.166-6.795.824 2.295 2.832 5.164 4.583 6.193 4.348 2.556 11.45-4.477 11.45-4.477 2.702-3.083 3.592-5.98 2.263-11.227m-32.61-3.542c1.218-3.359 4.59-6.797 9.3-11.042 0 0 2.913 4.21 3.295 11.165-4.2 1.663-9.27 1.34-12.596-.123" fill="#f8f8f9" fill-rule="evenodd" data-name="Path 110"/></g></g><defs><clipPath id="a"><path d="M0 0h93v86.937H0V0z" data-name="Rectangle 120"/></clipPath></defs></svg>