<svg xmlns="http://www.w3.org/2000/svg" width="140" height="35.709" viewBox="1190 1618.29 140 35.709"><g data-name="Group 122"><g data-name="Group 121" transform="translate(1190 1618.29)" clip-path="url(&quot;#a&quot;)"><path d="M138.254 25.293c-1.339 4.083-4.013 6.96-7.773 6.96-3.646 0-8.111-1.847-8.163-10.795L140 21.384c-.585-7.955-5.482-11.918-11.56-11.918-6.99 0-12.655 5.876-12.655 13.122 0 7.247 5.665 13.121 12.655 13.121 6.096 0 10.397-4.467 11.4-10.416h-1.586Zm-10.177-13.635c3.03 0 5.064 2.637 5.24 8.048l-10.88.045c.124-4.846 2.61-8.093 5.64-8.093" fill="#f8f8f9" fill-rule="evenodd" data-name="Path 57"/><path d="M41.074 25.293c-1.339 4.083-4.013 6.96-7.773 6.96-3.644 0-8.11-1.847-8.163-10.795l17.682-.074c-.585-7.955-5.482-11.918-11.56-11.918-6.99 0-12.655 5.876-12.655 13.122 0 7.247 5.666 13.121 12.656 13.121 6.095 0 10.396-4.467 11.399-10.416h-1.586ZM30.897 11.658c3.03 0 5.064 2.637 5.24 8.048l-10.88.045c.124-4.846 2.61-8.093 5.64-8.093" fill="#f8f8f9" fill-rule="evenodd" data-name="Path 58"/><path d="M69.922 35.157V19.56c0-5.464-2.102-9.539-8.664-9.539-5.525 0-7.406 4.802-7.96 6.465v-6.024h-6.155v24.694h6.155V18.214c.421-1.175 1.647-3.818 4.882-3.818 4.084 0 5.39 2.535 5.39 5.935v14.826h6.352Z" fill="#f8f8f9" fill-rule="evenodd" data-name="Path 59"/><path d="M98.852 35.157V19.56c0-5.464-2.102-9.539-8.662-9.539-5.527 0-7.408 4.802-7.962 6.465v-6.024h-6.155v24.694h6.155V18.214c.421-1.175 1.647-3.818 4.882-3.818 4.084 0 5.39 2.535 5.39 5.935v14.826h6.352Z" fill="#f8f8f9" fill-rule="evenodd" data-name="Path 60"/><path d="M105.21 10.49h6.155v24.667h-6.155V10.49z" fill="#f8f8f9" fill-rule="evenodd" data-name="Rectangle 47"/><path d="M108.29 7.981a3.991 3.991 0 1 0 0-7.982 3.991 3.991 0 0 0 0 7.982" fill="#f8f8f9" fill-rule="evenodd" data-name="Path 61"/><path d="M0 10.485h6.15v24.672H0V10.485z" fill="#f8f8f9" fill-rule="evenodd" data-name="Rectangle 48"/><path d="M12.375 17.997a3.988 3.988 0 1 0 0-7.976 3.988 3.988 0 0 0 0 7.976" fill="#f8f8f9" fill-rule="evenodd" data-name="Path 62"/></g></g><defs><clipPath id="a"><path d="M0 0h140v35.71H0V0z" data-name="Rectangle 49"/></clipPath></defs></svg>